<svg xmlns="http://www.w3.org/2000/svg" width="228.2" height="250.633" viewBox="0 0 228.2 250.633">
  <g id="Drousi" transform="translate(-888.3 -850.43)">
    <g id="Group_8" data-name="Group 8" transform="translate(923.787 850.43)">
      <g id="Group_7" data-name="Group 7" transform="translate(0)">
        <g id="Group_5" data-name="Group 5" transform="translate(0 56.142)">
          <g id="Group_2" data-name="Group 2">
            <path id="Path_1" data-name="Path 1" d="M1419.421,1675.65c-3.5-5.812-7.363-8.5-10.039-9.876-14.281-7.33-35.421,1.954-51.979.214-2.49-.262-6.743-.971-9.852-4.082a14.313,14.313,0,0,1-3.455-5.71,13.93,13.93,0,0,1-.626-4.143V1570.52h62.335a13.934,13.934,0,0,1,13.934,13.934Q1419.58,1630.052,1419.421,1675.65Z" transform="translate(-1343.47 -1570.52)" fill="#126e82"/>
            <g id="Group_1" data-name="Group 1" transform="translate(15.97 15.034)">
              <rect id="Rectangle_1" data-name="Rectangle 1" width="44.328" height="6.193" fill="#fff"/>
              <rect id="Rectangle_2" data-name="Rectangle 2" width="44.328" height="6.193" transform="translate(0 14.802)" fill="#fff"/>
              <rect id="Rectangle_3" data-name="Rectangle 3" width="44.328" height="6.193" transform="translate(0 29.603)" fill="#fff"/>
              <rect id="Rectangle_4" data-name="Rectangle 4" width="44.328" height="6.193" transform="translate(0 44.406)" fill="#fff"/>
              <rect id="Rectangle_5" data-name="Rectangle 5" width="44.328" height="6.193" transform="translate(0 59.207)" fill="#fff"/>
            </g>
          </g>
          <g id="Group_4" data-name="Group 4" transform="translate(85.943)">
            <path id="Path_2" data-name="Path 2" d="M2446.119,1675.65c3.5-5.812,7.363-8.5,10.039-9.876,14.281-7.33,35.421,1.954,51.979.214,2.491-.262,6.743-.971,9.853-4.082a14.306,14.306,0,0,0,3.455-5.71,13.922,13.922,0,0,0,.626-4.143V1570.52h-62.336a13.934,13.934,0,0,0-13.934,13.934Q2445.96,1630.052,2446.119,1675.65Z" transform="translate(-2445.8 -1570.52)" fill="#126e82"/>
            <g id="Group_3" data-name="Group 3" transform="translate(15.972 15.034)">
              <rect id="Rectangle_6" data-name="Rectangle 6" width="44.328" height="6.193" transform="translate(44.328 6.193) rotate(180)" fill="#fff"/>
              <rect id="Rectangle_7" data-name="Rectangle 7" width="44.328" height="6.193" transform="translate(44.328 20.995) rotate(180)" fill="#fff"/>
              <rect id="Rectangle_8" data-name="Rectangle 8" width="44.328" height="6.193" transform="translate(44.328 35.796) rotate(180)" fill="#fff"/>
              <rect id="Rectangle_9" data-name="Rectangle 9" width="44.328" height="6.193" transform="translate(44.328 50.597) rotate(180)" fill="#fff"/>
              <rect id="Rectangle_10" data-name="Rectangle 10" width="44.328" height="6.193" transform="translate(44.328 65.399) rotate(180)" fill="#fff"/>
            </g>
          </g>
        </g>
        <g id="Group_6" data-name="Group 6" transform="translate(33.334)">
          <path id="Path_3" data-name="Path 3" d="M2897.83,1023.574l3.083-8.257a2.662,2.662,0,0,1,0-5.094V997.24h1.532v12.983a2.66,2.66,0,0,1,0,5.094l3.086,8.257h-7.693Z" transform="translate(-2809.978 -985.794)" fill="#126e82"/>
          <path id="Path_4" data-name="Path 4" d="M2080.173,1104.39v22.492a70.73,70.73,0,0,1-54.563,0V1104.39l27.283,9.291Z" transform="translate(-2005.761 -1084.59)" fill="#126e82"/>
          <path id="Path_5" data-name="Path 5" d="M1865.283,861.284l-1.8.593-1.532.506-43.8,14.449-47.133-15.548,47.133-10.854,45.318,10.436Z" transform="translate(-1771.02 -850.43)" fill="#126e82"/>
          <path id="Path_6" data-name="Path 6" d="M2406.388,977.635l-1.8.593h-38.294a9.681,9.681,0,0,1-4,.655c-2.439,0-4.412-.505-4.412-1.134s1.973-1.13,4.412-1.13a10.245,10.245,0,0,1,3.887.6h38.4Z" transform="translate(-2312.125 -966.782)" fill="#fff"/>
        </g>
      </g>
    </g>
    <g id="Group_9" data-name="Group 9" transform="translate(888.3 1033.077)">
      <path id="Path_7" data-name="Path 7" d="M936.872,3430.978q-.935,7.172-8.108,11.227-6.472,3.585-16.139,3.586-12.943,0-19.491-7.407a21.476,21.476,0,0,1-1.949-24.325l9.356-1.95a21.663,21.663,0,0,0-3.119,11.149q0,6.549,3.9,10.058,3.9,3.585,11.305,3.586,11.538,0,14.034-5.925h-7.485l4.912-9.434h13.02v9.434ZM907.4,3463.021a4.983,4.983,0,0,1-3.742-1.442,5.193,5.193,0,0,1-1.4-3.781,4.956,4.956,0,0,1,1.4-3.665,5.058,5.058,0,0,1,3.742-1.4,4.71,4.71,0,0,1,5.068,5.068Q912.469,3463.019,907.4,3463.021Zm12.007,0a5.059,5.059,0,0,1-3.742-1.4,5.163,5.163,0,0,1-1.4-3.82q0-5.069,5.146-5.068a4.709,4.709,0,0,1,5.068,5.068Q924.476,3463.019,919.408,3463.021Z" transform="translate(-888.3 -3395.036)" fill="#51c4d3"/>
      <path id="Path_8" data-name="Path 8" d="M1463.29,3244.727v-9.434h8.264q2.962,0,4.249-1.287t1.286-4.327v-10.291l9.824-5.146v15.437q0,3.041,1.247,4.327t4.21,1.287h5.3q2.962,0,4.21-1.287t1.248-4.327v-12.318l9.823-5.224v17.542q0,3.041,1.286,4.327t4.249,1.287h5.3q2.962,0,4.21-1.287t1.247-4.327v-14.423l9.824-5.146v20.037q0,6.94-4.21,10.915a13.95,13.95,0,0,1-9.668,3.665h-7.719a13.247,13.247,0,0,1-9.434-3.431,12.271,12.271,0,0,1-8.888,3.431h-7.719A13.246,13.246,0,0,1,1482,3241.3a13.249,13.249,0,0,1-9.434,3.431Z" transform="translate(-1418.461 -3208.785)" fill="#51c4d3"/>
      <path id="Path_9" data-name="Path 9" d="M2605.239,3226.791a26.213,26.213,0,0,1-4.99.468,13.907,13.907,0,0,1-11.461-5.38,17.271,17.271,0,0,1-3.508-10.915q0-8.576,4.678-13.488a14.33,14.33,0,0,1,10.915-4.366q6.939,0,10.837,4.444a14.581,14.581,0,0,1,3.352,9.979v16.685q0,9.2-4.833,14.5-4.522,4.989-12.319,4.99a19.233,19.233,0,0,1-9.59-2.651v-8.5a16.789,16.789,0,0,0,8.42,2.417Q2604.3,3234.978,2605.239,3226.791Zm.078-19.413q0-5.146-4.444-5.146a5.1,5.1,0,0,0-4.4,2.26,10.5,10.5,0,0,0-1.6,6.159q0,8.265,5.925,8.265,3.118,0,4.522-1.559Z" transform="translate(-2452.975 -3193.11)" fill="#51c4d3"/>
      <path id="Path_10" data-name="Path 10" d="M3001.012,3239.893q0,9.044-4.99,14.657a15.419,15.419,0,0,1-12.163,5.223,20.151,20.151,0,0,1-9.59-2.495V3248.7a16.263,16.263,0,0,0,7.952,2.261,8.318,8.318,0,0,0,6.666-2.768q2.377-2.768,2.378-7.68v-25.182l9.745-5.224Z" transform="translate(-2811.637 -3208.785)" fill="#51c4d3"/>
      <path id="Path_11" data-name="Path 11" d="M3417.26,3233.662l4.912-9.434h12.319q3.976,0,3.976-4.6,0-8.654-8.264-13.254l4.834-8.265q13.253,7.8,13.254,21.675t-12.006,13.877Z" transform="translate(-3220.09 -3197.72)" fill="#51c4d3"/>
    </g>
  </g>
</svg>
